M48
METRIC,LZ,000.000
;FILE_FORMAT=3:3
;TYPE=PLATED
;Layer: PTH_Through
;EasyEDA v6.5.12, 2022-08-13 19:42:35
;9ce99227bc0a4aedad01d0d7efa1a16d,d2a3e1526f234093adc7d0cc0e5670ed,10
;Gerber Generator version 0.2
;Holesize 1 = 0.901 mm
T01C0.901
;Holesize 2 = 1.000 mm
T02C1.000
%
G05
G90
T01
X104521Y051308
X089281Y053848
X089281Y058929
X089281Y064009
X089281Y069089
X089281Y074169
X089281Y079249
X089281Y084329
X104521Y086868
X104521Y081787
X104521Y076707
X104521Y071627
X104521Y066547
X104521Y061467
X104521Y056388
X104521Y053848
X104521Y058928
X104521Y064008
X104521Y069088
X104521Y074168
X104521Y079248
X104521Y084328
X089281Y086868
X089281Y081788
X089281Y076708
X089281Y071628
X089281Y066548
X089281Y061468
X089281Y056388
X089281Y051308
T02
X061775Y054864
X061775Y057404
X125677Y064008
X125677Y061468
X076507Y055499
X076507Y058039
X125423Y084455
X125423Y081915
X125423Y079375
X061902Y080264
X061902Y082804
X061902Y085344
X076507Y080264
X076507Y082804
X076507Y085344
M30
