G04 Layer: TopLayer*
G04 EasyEDA v6.5.12, 2022-08-13 19:42:35*
G04 9ce99227bc0a4aedad01d0d7efa1a16d,d2a3e1526f234093adc7d0cc0e5670ed,10*
G04 Gerber Generator version 0.2*
G04 Scale: 100 percent, Rotated: No, Reflected: No *
G04 Dimensions in millimeters *
G04 leading zeros omitted , absolute positions ,4 integer and 5 decimal *
%FSLAX45Y45*%
%MOMM*%

%ADD10C,1.6000*%
%ADD11R,1.6000X1.6000*%

%LPD*%
D10*
G01*
X6177534Y5486400D03*
G01*
X6177534Y5740400D03*
G01*
X12567665Y6400800D03*
G01*
X12567665Y6146800D03*
G01*
X7650734Y5549900D03*
G01*
X7650734Y5803900D03*
G01*
X12542265Y8445500D03*
G01*
X12542265Y8191500D03*
G01*
X12542265Y7937500D03*
D11*
G01*
X10452100Y5130800D03*
D10*
G01*
X8928100Y5384800D03*
G01*
X8928100Y5892800D03*
G01*
X8928100Y6400800D03*
G01*
X8928100Y6908800D03*
G01*
X8928100Y7416800D03*
G01*
X8928100Y7924800D03*
G01*
X8928100Y8432800D03*
G01*
X10452100Y8686800D03*
G01*
X10452100Y8178800D03*
G01*
X10452100Y7670800D03*
G01*
X10452100Y7162800D03*
G01*
X10452100Y6654800D03*
G01*
X10452100Y6146800D03*
G01*
X10452100Y5638800D03*
G01*
X10452100Y5384800D03*
G01*
X10452100Y5892800D03*
G01*
X10452100Y6400800D03*
G01*
X10452100Y6908800D03*
G01*
X10452100Y7416800D03*
G01*
X10452100Y7924800D03*
G01*
X10452100Y8432800D03*
G01*
X8928100Y8686800D03*
G01*
X8928100Y8178800D03*
G01*
X8928100Y7670800D03*
G01*
X8928100Y7162800D03*
G01*
X8928100Y6654800D03*
G01*
X8928100Y6146800D03*
G01*
X8928100Y5638800D03*
D11*
G01*
X8928100Y5130800D03*
D10*
G01*
X6190234Y8026400D03*
G01*
X6190234Y8280400D03*
G01*
X6190234Y8534400D03*
G01*
X7650734Y8026400D03*
G01*
X7650734Y8280400D03*
G01*
X7650734Y8534400D03*
M02*
